<?xml version="1.0" encoding="UTF-8" standalone="no"?>
<svg width="32px" height="32px" viewBox="0 0 32 32" version="1.1" xmlns="http://www.w3.org/2000/svg" xmlns:xlink="http://www.w3.org/1999/xlink" xmlns:sketch="http://www.bohemiancoding.com/sketch/ns">
    <title>logos</title>
    <description>Created with Sketch (http://www.bohemiancoding.com/sketch)</description>
    <defs></defs>
    <g id="Page-1" stroke="none" stroke-width="1" fill="none" fill-rule="evenodd" sketch:type="MSPage">
        <g id="Group" sketch:type="MSLayerGroup" transform="translate(1.000000, 1.000000)" fill="#000000">
            <path d="M21,17 C21,17.5522847 21.4477153,18 22,18 C22.5522847,18 23,17.5522847 23,17 L23,0 C23,-0.55228475 22.5522847,-1 22,-1 C21.4477153,-1 21,-0.55228475 21,0 L21,17 Z M21,17" id="Line" sketch:type="MSShapeGroup"></path>
            <path d="M21,30 C21,30.5522847 21.4477153,31 22,31 C22.5522847,31 23,30.5522847 23,30 L23,27 C23,26.4477153 22.5522847,26 22,26 C21.4477153,26 21,26.4477153 21,27 L21,30 Z M21,30" id="Line" sketch:type="MSShapeGroup"></path>
            <path d="M7,29 C7,29.5522847 7.44771525,30 8,30 C8.55228475,30 9,29.5522847 9,29 L9,12 C9,11.4477153 8.55228475,11 8,11 C7.44771525,11 7,11.4477153 7,12 L7,29 Z M7,29" id="Line-copy" sketch:type="MSShapeGroup"></path>
            <path d="M7,3 C7,3.55228475 7.44771525,4 8,4 C8.55228475,4 9,3.55228475 9,3 L9,0 C9,-0.55228475 8.55228475,-1 8,-1 C7.44771525,-1 7,-0.55228475 7,0 L7,3 Z M7,3" id="Line-copy-2" sketch:type="MSShapeGroup"></path>
            <path d="M17,9 C17.5522847,9 18,8.55228475 18,8 C18,7.44771525 17.5522847,7 17,7 L0,7 C-0.55228475,7 -1,7.44771525 -1,8 C-1,8.55228475 -0.55228475,9 0,9 L17,9 Z M17,9" id="Line" sketch:type="MSShapeGroup"></path>
            <path d="M30,23 C30.5522847,23 31,22.5522847 31,22 C31,21.4477153 30.5522847,21 30,21 L13,21 C12.4477153,21 12,21.4477153 12,22 C12,22.5522847 12.4477153,23 13,23 L30,23 Z M30,23" id="Line-copy" sketch:type="MSShapeGroup"></path>
            <path d="M3,23 C3.55228475,23 4,22.5522847 4,22 C4,21.4477153 3.55228475,21 3,21 L0,21 C-0.55228475,21 -1,21.4477153 -1,22 C-1,22.5522847 -0.55228475,23 0,23 L3,23 Z M3,23" id="Line-copy-2" sketch:type="MSShapeGroup"></path>
            <path d="M30,9 C30.5522847,9 31,8.55228475 31,8 C31,7.44771525 30.5522847,7 30,7 L27,7 C26.4477153,7 26,7.44771525 26,8 C26,8.55228475 26.4477153,9 27,9 L30,9 Z M30,9" id="Line-copy-3" sketch:type="MSShapeGroup"></path>
        </g>
    </g>
</svg>