<?xml version="1.0" encoding="UTF-8" standalone="no"?>
<svg width="64px" height="64px" viewBox="0 0 64 64" version="1.1" xmlns="http://www.w3.org/2000/svg" xmlns:xlink="http://www.w3.org/1999/xlink" xmlns:sketch="http://www.bohemiancoding.com/sketch/ns">
    <title>Slice 1</title>
    <description>Created with Sketch (http://www.bohemiancoding.com/sketch)</description>
    <defs></defs>
    <g id="Page-1" stroke="none" stroke-width="1" fill="none" fill-rule="evenodd" sketch:type="MSPage">
        <g id="fi-social-500px" sketch:type="MSLayerGroup" transform="translate(2.000000, 16.000000)" fill="#000000">
            <g id="Group" sketch:type="MSShapeGroup">
                <path d="M60.9545623,22.1143779 C60.2560969,24.0802751 59.2660392,25.799172 57.9855193,27.2744369 C56.7038692,28.7474563 55.1170643,29.9061119 53.227365,30.7425444 C51.3354054,31.5812224 49.2241863,32 46.8970986,32 C45.0921645,32 43.4047716,31.7260543 41.8326593,31.1770402 C40.2605471,30.6280261 38.7901531,29.9061119 37.4237378,29.009052 C36.0550621,28.1119921 34.7609797,27.0723458 33.5381002,25.8867448 C32.3163509,24.7022665 31.1511117,23.4740018 30.0457732,22.2019507 C28.8228937,23.4740018 27.6293994,24.7022665 26.4652904,25.8867448 C25.3000512,27.0734685 24.0647394,28.1119921 22.7537041,29.009052 C21.4437989,29.9061119 20.0174828,30.6269034 18.4758861,31.1770402 C16.9331591,31.7260543 15.2016882,32 13.2803433,32 C10.8933548,32 8.7685733,31.5812224 6.90599891,30.7425444 C5.04229431,29.9061119 3.441927,28.7788927 2.10376675,27.360887 C0.763346107,25.9451267 -0.253836509,24.2531752 -0.952301905,22.2872781 C-1.6507673,20.3225037 -2,18.2117746 -2,15.9562136 C-2,13.7017753 -1.66659014,11.6078872 -0.996379819,9.66893551 C-0.328429901,7.73222932 0.64806541,6.0571188 1.9285853,4.64023577 C3.20797499,3.22447548 4.78008724,2.09725633 6.64379183,1.25745562 C8.50636622,0.421023086 10.6017624,0.00112272823 12.9299804,0.00112272823 C14.8513253,0.00112272823 16.6110513,0.290786611 18.2125488,0.86899165 C19.8129161,1.44719669 21.2968725,2.21177461 22.6655482,3.16609361 C24.0330938,4.1204126 25.3136136,5.21956354 26.5071079,6.46130096 C27.699472,7.70528384 28.8782736,9.01887587 30.0435128,10.4076907 C31.1477211,9.07725774 32.2982676,7.77713845 33.4917619,6.50508736 C34.6841259,5.23303628 35.9646458,4.11928987 37.3333216,3.16497088 C38.7008671,2.21065188 40.1848235,1.44607396 41.786321,0.867868921 C43.3866883,0.289663883 45.1181592,0 46.9818638,0 C49.3100818,0 51.405478,0.404182163 53.2680523,1.21366922 C55.1294965,2.024279 56.7016088,3.13690267 57.9832589,4.55266297 C59.2626486,5.969546 60.2527063,7.63118378 60.9523019,9.53869904 C61.6507673,11.4462143 62,13.5277524 62,15.7821907 C62,18.036629 61.6541579,20.1496035 60.9545623,22.1143779 C60.9545623,22.1143779 61.6541579,20.1496035 60.9545623,22.1143779 Z M47.8317865,9 C46.6357309,9 45.4860789,9.23737958 44.3805104,9.70782274 C43.2737819,10.1804239 42.2296984,10.7781888 41.2436195,11.5000385 C40.2575406,12.2218882 39.3167053,13.0138728 38.4199536,13.8749133 C37.5243619,14.7370328 36.7169374,15.5279383 36,16.2497881 C36.7761021,17.0816956 37.6136891,17.9028131 38.5092807,18.7077457 C39.4060325,19.5137572 40.3607889,20.2366859 41.3770302,20.8743738 C42.3921114,21.5142197 43.4524362,22.0278227 44.5591647,22.416262 C45.6635731,22.8057803 46.8445476,23 48.0986079,23 C50.3085847,23 52.0116009,22.3331792 53.2076566,20.9995376 C54.4025522,19.665896 55,18.0279769 55,16.0825434 C55,14.1381888 54.3573086,12.4700578 53.0730858,11.0813873 C51.7888631,9.69487476 50.0417633,9 47.8317865,9 Z M23.4917262,13.8745376 C22.5345912,13.0135635 21.53337,12.22164 20.4892227,11.4998459 C19.4427551,10.7780518 18.3522013,10.1803329 17.2175612,9.70776819 C16.081761,9.23628237 14.9459608,9 13.8124809,9 C11.7207059,9 10.0616719,9.73689889 8.83769921,11.2085388 C7.6125664,12.6801788 7,14.3330764 7,16.1672318 C7,18.1675401 7.62764853,19.8064118 8.88178543,21.0838471 C10.1370825,22.3623613 11.8692068,23 14.0804787,23 C15.2139586,23 16.3497588,22.7917694 17.485559,22.3753083 C18.6201991,21.9577682 19.6956708,21.4312577 20.7119741,20.7914612 C21.7271173,20.1527435 22.6842523,19.4309494 23.5798986,18.625 C24.475545,17.8201295 25.2830189,17.0292848 26,16.2503083 C25.284179,15.5285142 24.4465409,14.7365906 23.4917262,13.8745376 C23.4917262,13.8745376 24.4465409,14.7365906 23.4917262,13.8745376 Z M23.4917262,13.8745376" id="Shape"></path>
            </g>
        </g>
    </g>
</svg>