<?xml version="1.0" encoding="utf-8"?>
<!-- Generated by IcoMoon.io -->
<!DOCTYPE svg PUBLIC "-//W3C//DTD SVG 1.1//EN" "http://www.w3.org/Graphics/SVG/1.1/DTD/svg11.dtd">
<svg version="1.1" xmlns="http://www.w3.org/2000/svg" xmlns:xlink="http://www.w3.org/1999/xlink" width="176" height="32" viewBox="0 0 176 32">
<g transform="translate(0 0)">
	<path d="M26.688 0h-21.375c-2.922 0-5.313 2.391-5.313 5.313v21.375c0 2.922 2.391 5.313 5.313 5.313h21.375c2.922 0 5.313-2.391 5.313-5.313v-21.375c0-2.922-2.391-5.313-5.313-5.313zM10.244 14h11.513c0.218 0.627 0.337 1.3 0.337 2 0 3.36-2.734 6.094-6.094 6.094-3.36 0-6.094-2.734-6.094-6.094 0-0.7 0.119-1.373 0.338-2zM28 14.002v11.998c0 1.1-0.9 2-2 2h-20c-1.1 0-2-0.9-2-2v-12h3.128c-0.145 0.644-0.222 1.313-0.222 2 0 5.014 4.079 9.094 9.094 9.094 5.014 0 9.094-4.079 9.094-9.094 0-0.687-0.077-1.356-0.222-2l3.128 0.002zM28 7c0 0.55-0.45 1-1 1h-2c-0.55 0-1-0.45-1-1v-2c0-0.55 0.45-1 1-1h2c0.55 0 1 0.45 1 1v2z" fill="#000000" />
</g>
<g transform="translate(48 0)">
	<path d="M25 13c-2.206 0-4 1.794-4 4s1.794 4 4 4c2.206 0 4-1.794 4-4 0-2.206-1.794-4-4-4zM25 10v0c3.866 0 7 3.134 7 7 0 3.866-3.134 7-7 7-3.866 0-7-3.134-7-7 0-3.866 3.134-7 7-7zM0 17c0-3.866 3.134-7 7-7s7 3.134 7 7c0 3.866-3.134 7-7 7-3.866 0-7-3.134-7-7z" fill="#000000" />
</g>
<g transform="translate(96 0)">
	<path d="M25 6h4v6h-26v-6h18v6h4v-6zM25 6" fill="#000000" />
	<path d="M7 26h-4v-6h26v6h-18v-6h-4v6zM7 26" fill="#000000" />
	<path d="M8 5v-4h2v4h-2zM8 13v18h2v-18h-2zM8 13" fill="#000000" />
	<path d="M22 19v-18h2v18h-2zM22 27v4h2v-4h-2zM22 27" fill="#000000" />
	<path d="M6 9c0 1.657-1.343 3-3 3s-3-1.343-3-3c0-1.657 1.343-3 3-3 1.657 0 3 1.343 3 3z" fill="#000000" />
	<path d="M32 23c0 1.657-1.343 3-3 3s-3-1.343-3-3c0-1.657 1.343-3 3-3 1.657 0 3 1.343 3 3z" fill="#000000" />
	<path d="M32 9c0 1.657-1.343 3-3 3s-3-1.343-3-3c0-1.657 1.343-3 3-3 1.657 0 3 1.343 3 3z" fill="#000000" />
	<path d="M6 23c0 1.657-1.343 3-3 3s-3-1.343-3-3c0-1.657 1.343-3 3-3 1.657 0 3 1.343 3 3z" fill="#000000" />
	<path d="M10 1c0 0.552-0.448 1-1 1s-1-0.448-1-1c0-0.552 0.448-1 1-1 0.552 0 1 0.448 1 1z" fill="#000000" />
	<path d="M24 1c0 0.552-0.448 1-1 1s-1-0.448-1-1c0-0.552 0.448-1 1-1 0.552 0 1 0.448 1 1z" fill="#000000" />
	<path d="M24 31c0 0.552-0.448 1-1 1s-1-0.448-1-1c0-0.552 0.448-1 1-1 0.552 0 1 0.448 1 1z" fill="#000000" />
	<path d="M10 31c0 0.552-0.448 1-1 1s-1-0.448-1-1c0-0.552 0.448-1 1-1 0.552 0 1 0.448 1 1z" fill="#000000" />
</g>
<g transform="translate(144 0)">
	<path d="M31.477 19.057c-0.349 0.983-0.844 1.842-1.485 2.58-0.641 0.736-1.434 1.316-2.379 1.734-0.946 0.419-2.002 0.629-3.165 0.629-0.902 0-1.746-0.137-2.532-0.411-0.786-0.274-1.521-0.635-2.204-1.084-0.684-0.449-1.331-0.968-1.943-1.561-0.611-0.592-1.194-1.206-1.746-1.842-0.611 0.636-1.208 1.25-1.79 1.842-0.583 0.593-1.2 1.113-1.856 1.561-0.655 0.449-1.368 0.809-2.139 1.084-0.771 0.274-1.637 0.411-2.598 0.411-1.194 0-2.256-0.209-3.187-0.629-0.932-0.418-1.732-0.982-2.401-1.691-0.67-0.708-1.179-1.554-1.528-2.537-0.349-0.982-0.524-2.038-0.524-3.166 0-1.127 0.167-2.174 0.502-3.144 0.334-0.968 0.822-1.806 1.462-2.514 0.64-0.708 1.426-1.271 2.358-1.691 0.931-0.418 1.979-0.628 3.143-0.628 0.961 0 1.841 0.145 2.641 0.434 0.8 0.289 1.542 0.671 2.226 1.149 0.684 0.477 1.324 1.027 1.921 1.648 0.596 0.622 1.186 1.279 1.768 1.973 0.552-0.665 1.127-1.315 1.724-1.951 0.596-0.636 1.236-1.193 1.921-1.67 0.684-0.477 1.426-0.859 2.227-1.149 0.8-0.289 1.666-0.434 2.598-0.434 1.164 0 2.212 0.202 3.143 0.607 0.931 0.405 1.717 0.962 2.358 1.669 0.64 0.708 1.135 1.539 1.485 2.493 0.349 0.954 0.524 1.995 0.524 3.122 0 1.127-0.173 2.184-0.523 3.166 0 0 0.35-0.982 0 0zM24.916 12.5c-0.598 0-1.173 0.119-1.726 0.354-0.553 0.236-1.075 0.535-1.568 0.896-0.493 0.361-0.963 0.757-1.412 1.187-0.448 0.431-0.852 0.826-1.21 1.187 0.388 0.416 0.807 0.826 1.255 1.229 0.448 0.403 0.926 0.764 1.434 1.083 0.508 0.32 1.038 0.577 1.591 0.771 0.552 0.195 1.143 0.292 1.77 0.292 1.105 0 1.956-0.333 2.555-1 0.597-0.667 0.896-1.486 0.896-2.459 0-0.972-0.321-1.806-0.963-2.501-0.642-0.693-1.516-1.041-2.621-1.041zM12.746 14.937c-0.479-0.431-0.979-0.826-1.501-1.187-0.523-0.361-1.069-0.66-1.636-0.896-0.568-0.236-1.136-0.354-1.703-0.354-1.046 0-1.875 0.368-2.487 1.104-0.613 0.736-0.919 1.562-0.919 2.479 0 1 0.314 1.82 0.941 2.458 0.628 0.639 1.494 0.958 2.599 0.958 0.567 0 1.135-0.104 1.703-0.312 0.567-0.209 1.105-0.472 1.613-0.792 0.508-0.319 0.986-0.68 1.434-1.083 0.448-0.402 0.852-0.798 1.21-1.187-0.358-0.361-0.777-0.757-1.254-1.188 0 0 0.477 0.431 0 0zM12.746 14.937" fill="#000000" />
</g>
</svg>
